<svg width="50" height="50" xmlns="http://www.w3.org/2000/svg"><path d="M49.935 15.8c-.091-.548-.166-.975-.747-1.33C25.428.377 25.765-.673 24.223.259 6.216 11.452 1.205 13.949.485 14.82-.17 15.49.13 16.518.13 32.04c-.044 1.767 16.068 11.336 23.904 17.44.691.493 1.56.414 2.082-.06 23.292-16.51 23.859-15.846 23.82-17.38 0 0-.026-16.45 0-16.24zm-3.113 13.47l-8.043-4.895 8.043-5.597V29.27zm-10.95-6.665l-9.283-5.65V4.36l18.938 11.528-9.656 6.718zm-10.84 7.539l-8.043-5.597 8.043-4.895 8.044 4.895-8.044 5.597zM23.476 4.357v12.605c-3.609 2.24-6.66 4.11-9.237 5.674l-9.702-6.749 18.939-11.53zM11.321 24.4c-3.889 2.339-6.429 3.824-8.078 4.814V18.778L11.32 24.4zm2.76 1.917l9.395 6.535v12.45L4.537 32.125l9.544-5.809zM26.59 45.304v-12.45l9.394-6.535 9.544 5.809L26.59 45.304z" fill="#000" fill-rule="nonzero"/></svg>