<svg width="50" height="50" xmlns="http://www.w3.org/2000/svg"><path d="M25 0C11.269 0 0 11.269 0 25c0 11.718 8.222 22.362 19.14 25v-8.271c-1.081.237-2.077.244-3.178-.08-1.478-.437-2.678-1.421-3.57-2.922-.567-.958-1.574-1.997-2.624-1.92l-.258-2.92c2.271-.194 4.236 1.384 5.402 3.344.518.871 1.114 1.382 1.88 1.608.74.217 1.533.113 2.459-.214.232-1.853 1.081-2.546 1.722-3.523v-.001c-6.511-.972-9.107-4.426-10.137-7.153-1.364-3.62-.632-8.144 1.781-11.002.047-.056.132-.201.1-.303-1.107-3.343.241-6.108.29-6.402 1.278.378 1.485-.38 5.548 2.089l.703.422c.293.175.201.075.495.053A21.216 21.216 0 0 1 25 12.067c1.775.023 3.552.277 5.318.756l.228.023c-.02-.003.062-.014.199-.096 5.075-3.074 4.893-2.07 6.254-2.512.049.294 1.38 3.104.285 6.405-.148.454 4.4 4.619 1.88 11.304-1.03 2.728-3.626 6.182-10.137 7.154v.001c.834 1.272 1.837 1.949 1.832 4.574V50c10.919-2.638 19.14-13.282 19.14-25C50 11.269 38.732 0 25 0z" fill="#000" fill-rule="nonzero"/></svg>