<svg width="52" height="52" xmlns="http://www.w3.org/2000/svg"><path d="M47.394 1H4.606A3.606 3.606 0 0 0 1 4.606v42.788A3.606 3.606 0 0 0 4.606 51h42.788A3.606 3.606 0 0 0 51 47.394V4.606A3.606 3.606 0 0 0 47.394 1zM18.735 38.793h-6.088V20.475h6.088v18.318zm-3.044-20.82h-.04c-2.043 0-3.364-1.406-3.364-3.163 0-1.798 1.362-3.165 3.445-3.165 2.082 0 3.364 1.367 3.404 3.165 0 1.757-1.322 3.164-3.445 3.164zm24.999 20.82h-6.088v-9.8c0-2.462-.882-4.142-3.085-4.142-1.682 0-2.683 1.133-3.124 2.227-.16.391-.2.938-.2 1.485v10.23h-6.088s.08-16.6 0-18.318h6.088v2.594c.81-1.248 2.257-3.024 5.487-3.024 4.006 0 7.01 2.618 7.01 8.245v10.503z" fill="#000" fill-rule="nonzero" stroke="#000"/></svg>