<svg width="50" height="41" xmlns="http://www.w3.org/2000/svg"><path d="M15.725 40.634c18.862 0 29.176-15.627 29.176-29.177 0-.444-.01-.886-.029-1.325a20.868 20.868 0 0 0 5.115-5.31 20.459 20.459 0 0 1-5.889 1.614 10.293 10.293 0 0 0 4.51-5.672 20.566 20.566 0 0 1-6.512 2.49 10.243 10.243 0 0 0-7.485-3.24c-5.663 0-10.255 4.592-10.255 10.253 0 .805.09 1.587.266 2.338-8.523-.429-16.08-4.51-21.138-10.714a10.23 10.23 0 0 0-1.388 5.154c0 3.558 1.81 6.699 4.563 8.536a10.174 10.174 0 0 1-4.644-1.283l-.001.131c0 4.967 3.534 9.113 8.227 10.053a10.292 10.292 0 0 1-4.632.175c1.306 4.075 5.092 7.04 9.58 7.123a20.573 20.573 0 0 1-12.736 4.39 20.87 20.87 0 0 1-2.447-.143 29.028 29.028 0 0 0 15.72 4.607" fill="#000" fill-rule="nonzero"/></svg>