<?xml version="1.0" encoding="UTF-8"?>
<svg width="50px" height="50px" viewBox="0 0 50 50" version="1.1" xmlns="http://www.w3.org/2000/svg" xmlns:xlink="http://www.w3.org/1999/xlink">
    <title>sozialen-medien</title>
    <g id="Page-1" stroke="none" stroke-width="1" fill="none" fill-rule="evenodd">
        <g id="Artboard" transform="translate(-356.000000, -1698.000000)" fill="#000000" fill-rule="nonzero">
            <g id="Group-3" transform="translate(180.000000, 1614.000000)">
                <g id="sozialen-medien" transform="translate(176.000000, 84.000000)">
                    <path d="M49.9351492,15.8 C49.8438392,15.2521401 49.769131,14.8246433 49.1880674,14.4697795 C25.4287938,0.3769131 25.7649805,-0.673151751 24.2230869,0.258625162 C6.21634241,11.4523995 1.20466926,13.9488975 0.484565499,14.8204929 C-0.169130999,15.4907912 0.129701686,16.5180285 0.129701686,32.0407263 C0.0861219196,33.8067445 16.1981842,43.3756161 24.0342412,49.4809339 C24.7252918,49.9727626 25.5948119,49.893904 26.1156939,49.4207523 C49.4080415,32.9102464 49.9745785,33.5743191 49.9351492,32.0407263 C49.9351492,32.0407263 49.9102464,15.5904021 49.9351492,15.8 Z M46.8223087,29.2702983 L38.7787289,24.3748379 L46.8223087,18.7779507 L46.8223087,29.2702983 Z M35.8713359,22.6046693 L26.5888457,16.9559014 L26.5888457,4.35927367 L45.5273671,15.8871595 L35.8713359,22.6046693 Z M25.0324254,30.1439689 L16.9888457,24.5470817 L25.0324254,19.6516213 L33.0760052,24.5470817 L25.0324254,30.1439689 Z M23.4760052,4.35719844 L23.4760052,16.9621271 C19.8671855,19.201297 16.8166018,21.0710765 14.2391699,22.6357977 L4.53748379,15.8871595 L23.4760052,4.35719844 Z M11.3214008,24.3997406 C7.43242542,26.7385214 4.8923476,28.2243839 3.24254215,29.2142672 L3.24254215,18.7779507 L11.3214008,24.3997406 Z M14.0814527,26.3172503 L23.4760052,32.8521401 L23.4760052,45.3014267 L4.53748379,32.1258106 L14.0814527,26.3172503 Z M26.5888457,45.3035019 L26.5888457,32.8542153 L35.9833982,26.3193256 L45.5273671,32.1278859 L26.5888457,45.3035019 Z" id="Shape"></path>
                </g>
            </g>
        </g>
    </g>
</svg>