<?xml version="1.0" encoding="UTF-8"?>
<svg width="50px" height="50px" viewBox="0 0 50 50" version="1.1" xmlns="http://www.w3.org/2000/svg" xmlns:xlink="http://www.w3.org/1999/xlink">
    <title>icon (1)</title>
    <g id="Page-1" stroke="none" stroke-width="1" fill="none" fill-rule="evenodd">
        <g id="Artboard" transform="translate(-268.000000, -1698.000000)" fill="#000000" fill-rule="nonzero">
            <g id="Group-3" transform="translate(180.000000, 1614.000000)">
                <g id="icon-(1)" transform="translate(88.000000, 84.000000)">
                    <path d="M25,-7.10542736e-15 C11.2686157,-7.10542736e-15 -1.77635684e-14,11.2686157 -1.77635684e-14,25 C-1.77635684e-14,36.7176056 8.22219844,47.3617554 19.140625,50 L19.140625,41.7289734 C18.0587769,41.9658661 17.0631408,41.9727325 15.9618378,41.6481018 C14.4844055,41.2120819 13.2839203,40.22789 12.392807,38.7271881 C11.8247986,37.7689361 10.8181,36.7298126 9.76791387,36.8061065 L9.51042178,33.8878632 C11.781311,33.6933136 13.7458801,35.2714539 14.9120331,37.2306824 C15.4300689,38.1019592 16.0263062,38.6127472 16.7915344,38.8385772 C17.5312042,39.0563965 18.3254242,38.9518738 19.2508697,38.6249542 C19.4831848,36.7721558 20.331955,36.0786437 20.9732056,35.1020812 L20.9732056,35.1005555 C14.4615174,34.1293335 11.8663788,30.6747437 10.8364105,27.947998 C9.47151182,24.3274688 10.2039337,19.8043823 12.6174927,16.9460297 C12.6644135,16.8903351 12.7490997,16.7446137 12.7162934,16.6427612 C11.6096496,13.299942 12.9581451,10.534668 13.0077362,10.2413178 C14.2848969,10.6189728 14.4924164,9.86137393 18.5554504,12.3298645 L19.2577362,12.75177 C19.5514679,12.9268646 19.4591522,12.8269195 19.7528839,12.8047943 C21.4492798,12.3439789 23.2376099,12.0895386 24.9996186,12.0666504 C26.7749786,12.0895386 28.5518646,12.3439789 30.318451,12.8234863 L30.5458068,12.8463745 C30.5259705,12.8433228 30.607605,12.8318787 30.7445526,12.7502441 C35.8200073,9.67597959 35.6376648,10.6807709 36.9987488,10.238266 C37.0479584,10.5319977 38.3785248,13.3422852 37.2837066,16.6427612 C37.1360779,17.0974731 41.68396,21.2619781 39.163208,27.9468536 C38.1332397,30.6747437 35.5384826,34.1293335 29.0267944,35.1005555 L29.0267944,35.1020812 C29.8614502,36.3742828 30.8643341,37.0510102 30.8589936,39.6755219 L30.8589936,50 C41.7778016,47.3617554 49.9996186,36.7176056 49.9996186,25 C49.9996186,11.2686157 38.7313843,-7.10542736e-15 25,-7.10542736e-15 Z" id="Path"></path>
                </g>
            </g>
        </g>
    </g>
</svg>