<?xml version="1.0" encoding="UTF-8"?>
<svg width="50px" height="41px" viewBox="0 0 50 41" version="1.1" xmlns="http://www.w3.org/2000/svg" xmlns:xlink="http://www.w3.org/1999/xlink">
    <title>icon (2)</title>
    <g id="Page-1" stroke="none" stroke-width="1" fill="none" fill-rule="evenodd">
        <g id="Artboard" transform="translate(-444.000000, -1703.000000)" fill="#000000" fill-rule="nonzero">
            <g id="Group-3" transform="translate(180.000000, 1614.000000)">
                <g id="icon-(2)" transform="translate(264.000000, 89.000000)">
                    <path d="M15.7249487,40.6335583 C34.5865121,40.6335583 44.9010906,25.00703 44.9010906,11.4571107 C44.9010906,11.013302 44.891921,10.5713272 44.8720535,10.1317977 C46.874083,8.6842234 48.6141676,6.87781205 49.9871626,4.82168185 C48.1498802,5.63869327 46.1723029,6.18795235 44.0984448,6.43644851 C46.2154,5.16645884 47.8408646,3.1583162 48.6074433,0.764439045 C46.6261981,1.93906495 44.4319127,2.79244914 42.0961096,3.25337441 C40.2248998,1.26020884 37.5605194,0.0137543818 34.6106588,0.0137543818 C28.9481245,0.0137543818 24.3556827,4.60589053 24.3556827,10.2665908 C24.3556827,11.0716818 24.4458505,11.8541545 24.6216011,12.6048391 C16.0990684,12.1760074 8.54148326,8.09584069 3.48444836,1.89107739 C2.60416667,3.4062011 2.09617074,5.16676448 2.09617074,7.04531002 C2.09617074,10.6025039 3.90655563,13.7437035 6.65926987,15.5806803 C4.97695376,15.5290249 3.39672582,15.0671826 2.01517261,14.2984644 C2.01364437,14.3415615 2.01364437,14.383436 2.01364437,14.429284 C2.01364437,19.3955399 5.54821987,23.5420335 10.240916,24.4816119 C9.37897347,24.716048 8.4721,24.8422829 7.53680063,24.8422829 C6.8772007,24.8422829 6.23410603,24.7774844 5.60935055,24.6573626 C6.91479609,28.7317219 10.7006186,31.6965595 15.1888326,31.7796973 C11.679015,34.5305775 7.25773912,36.1691853 2.4525626,36.1691853 C1.6260759,36.1691853 0.809064476,36.121809 0.00641871674,36.0270564 C4.54475986,38.9359595 9.93373435,40.6335583 15.7252543,40.6335583" id="Path"></path>
                </g>
            </g>
        </g>
    </g>
</svg>